HIERARCHY
ROOT root
{
	OFFSET 0.000000 0.000000 0.000000
	CHANNELS 6 Xposition Yposition Zposition Zrotation Yrotation Xrotation
	JOINT lhip
	{
		OFFSET 0.058581 -0.082280 -0.017664
		CHANNELS 3 Zrotation Yrotation Xrotation
		JOINT lknee
		{
			OFFSET 0.043451 -0.386469 0.008037
			CHANNELS 3 Zrotation Yrotation Xrotation
			JOINT lankle
			{
				OFFSET -0.014790 -0.426874 -0.037428
				CHANNELS 3 Zrotation Yrotation Xrotation
				JOINT ltoe
				{
					OFFSET 0.041054 -0.060286 0.122042
					CHANNELS 3 Zrotation Yrotation Xrotation
					End Site
					{
						OFFSET 0.000000 0.000000 0.000000
					}
				}
			}
		}
	}
	JOINT rhip
	{
		OFFSET -0.060310 -0.090513 -0.013543
		CHANNELS 3 Zrotation Yrotation Xrotation
		JOINT rknee
		{
			OFFSET -0.043257 -0.383688 -0.004843
			CHANNELS 3 Zrotation Yrotation Xrotation
			JOINT rankle
			{
				OFFSET 0.019056 -0.420046 -0.034562
				CHANNELS 3 Zrotation Yrotation Xrotation
				JOINT rtoe
				{
					OFFSET -0.034840 -0.062106 0.130323
					CHANNELS 3 Zrotation Yrotation Xrotation
					End Site
					{
						OFFSET 0.000000 0.000000 0.000000
					}
				}
			}
		}
	}
	JOINT lowerback
	{
		OFFSET 0.004439 0.124404 -0.038385
		CHANNELS 3 Zrotation Yrotation Xrotation
		JOINT upperback
		{
			OFFSET 0.004488 0.137956 0.026820
			CHANNELS 3 Zrotation Yrotation Xrotation
			JOINT chest
			{
				OFFSET -0.002265 0.056032 0.002855
				CHANNELS 3 Zrotation Yrotation Xrotation
				JOINT lowerneck
				{
					OFFSET -0.013390 0.211636 -0.033468
					CHANNELS 3 Zrotation Yrotation Xrotation
					JOINT upperneck
					{
						OFFSET 0.010113 0.088937 0.050410
						CHANNELS 3 Zrotation Yrotation Xrotation
						End Site
						{
							OFFSET 0.000000 0.000000 0.000000
						}
					}
				}
				JOINT lclavicle
				{
					OFFSET 0.071702 0.114000 -0.018898
					CHANNELS 3 Zrotation Yrotation Xrotation
					JOINT lshoulder
					{
						OFFSET 0.122921 0.045205 -0.019046
						CHANNELS 3 Zrotation Yrotation Xrotation
						JOINT lelbow
						{
							OFFSET 0.255332 -0.015649 -0.022946
							CHANNELS 3 Zrotation Yrotation Xrotation
							JOINT lwrist
							{
								OFFSET 0.265709 0.012698 -0.007375
								CHANNELS 3 Zrotation Yrotation Xrotation
								End Site
								{
									OFFSET 0.000000 0.000000 0.000000
								}
							}
						}
					}
				}
				JOINT rclavicle
				{
					OFFSET -0.082954 0.112472 -0.023707
					CHANNELS 3 Zrotation Yrotation Xrotation
					JOINT rshoulder
					{
						OFFSET -0.113228 0.046853 -0.008472
						CHANNELS 3 Zrotation Yrotation Xrotation
						JOINT relbow
						{
							OFFSET -0.260127 -0.014369 -0.031269
							CHANNELS 3 Zrotation Yrotation Xrotation
							JOINT rwrist
							{
								OFFSET -0.269108 0.006794 -0.006027
								CHANNELS 3 Zrotation Yrotation Xrotation
								End Site
								{
									OFFSET 0.000000 0.000000 0.000000
								}
							}
						}
					}
				}
			}
		}
	}
}
MOTION
Frames: 10
Frame Time: 0.033333
-0.141375 0.235805 0.976535 117.561749 -1.070211 99.552385 -2.578583 -5.426388 -39.892914 -4.302223 -13.737595 26.746420 -4.958926 3.821078 2.090145 0.000000 -0.000000 0.000000 -7.111348 -4.895716 -34.015525 -6.544168 -6.009026 34.219557 3.351615 -18.180781 -5.707096 0.000000 -0.000000 0.000000 10.681869 2.755150 37.518238 12.204186 -2.007293 -7.635188 12.767700 6.817298 5.331786 7.336305 -6.420725 12.090141 23.576463 -4.317804 -26.306366 47.468802 -18.364479 -35.506095 11.921407 -33.398942 -27.518571 44.288012 -48.798395 -55.212402 30.485583 8.845014 -31.074107 -38.347249 26.482165 -30.167100 -2.790398 45.445194 -38.506055 -61.528734 34.107982 -79.738159 -30.524561 -8.973042 -40.569102 
-0.141831 0.242396 0.977702 114.739055 -1.469263 99.431930 -2.937875 -5.090943 -39.495124 -4.066580 -12.516608 26.997141 -4.604950 4.369654 1.435674 0.000000 -0.000000 0.000000 -7.727425 -4.300350 -34.108037 -6.481241 -4.916510 33.709221 3.528411 -17.194686 -5.257497 0.000000 -0.000000 0.000000 10.945414 2.354718 36.997491 12.814532 -2.383948 -7.294728 12.866050 6.679707 5.487636 6.889141 -6.408170 12.721159 23.136191 -4.634692 -26.370259 47.889218 -18.453110 -35.912233 11.578266 -34.024869 -27.553718 42.616968 -48.431039 -52.708741 29.134476 8.515649 -31.226016 -38.070123 26.435230 -30.422825 -1.949586 46.492223 -38.088233 -61.223800 33.320614 -79.289366 -30.447354 -8.943405 -40.359820 
-0.141075 0.248913 0.979049 111.961519 -1.954838 99.234340 -3.298045 -4.754706 -38.792642 -3.853142 -11.170998 26.949584 -4.198831 5.203415 0.887263 0.000000 -0.000000 0.000000 -8.437644 -3.754300 -33.952535 -6.222118 -3.743231 33.027769 3.941841 -16.539256 -4.821612 0.000000 -0.000000 0.000000 11.218591 2.097890 36.477238 13.383363 -2.759794 -6.700922 12.879316 6.532460 5.541644 7.121373 -6.180054 11.038756 22.888854 -5.943252 -25.965073 48.399155 -18.411606 -36.195570 11.669026 -34.659963 -28.102420 41.235734 -47.866663 -51.242788 27.713360 7.943712 -31.684190 -37.652273 26.272317 -30.146237 -1.853413 46.949396 -38.105305 -61.471205 32.501457 -79.246725 -30.386470 -9.224542 -40.621167 
-0.139107 0.255249 0.980535 109.100165 -2.302552 99.283422 -3.534353 -4.010997 -38.203178 -3.662404 -9.681683 26.719592 -3.997997 5.762629 0.443716 0.000000 -0.000000 0.000000 -8.925569 -3.001453 -33.961635 -6.154216 -2.578067 32.117770 4.285870 -15.556170 -4.232238 0.000000 -0.000000 0.000000 11.472863 1.670121 36.052894 13.828996 -2.973008 -6.834086 12.864060 6.399024 5.563241 6.434806 -5.974010 11.543814 22.744250 -6.554968 -26.026144 48.873817 -18.906758 -35.921286 11.700218 -34.931011 -28.353835 40.969046 -47.529437 -51.037276 26.961625 7.232991 -31.989652 -37.162683 26.336778 -30.033740 -0.863144 47.291345 -37.533048 -61.764598 31.793336 -78.813532 -30.351694 -8.641611 -39.315406 
-0.136463 0.261096 0.982583 106.469814 -2.941439 99.060333 -3.970772 -3.723790 -37.192480 -3.580411 -8.389050 26.346220 -3.916892 6.676066 0.194249 0.000000 -0.000000 0.000000 -9.628337 -2.653271 -33.593884 -6.131780 -1.474165 31.348429 4.892407 -14.982390 -3.989776 0.000000 -0.000000 0.000000 11.747077 1.327499 35.851174 14.178969 -3.294259 -7.228063 12.802903 5.822341 6.421347 6.585088 -5.498644 8.866778 21.970455 -7.902085 -25.192268 48.947415 -18.236264 -36.437166 12.037734 -36.077849 -28.883212 40.190248 -47.309507 -50.666223 26.407412 6.701340 -32.225332 -36.478758 24.986332 -30.747290 0.650023 48.694200 -35.670591 -62.501814 31.016680 -78.930601 -30.491672 -8.531955 -38.094268 
-0.132957 0.267180 0.984444 103.415152 -3.542990 98.913051 -4.290853 -3.413281 -36.122625 -3.318137 -6.632945 25.913412 -3.815172 7.546349 -0.364617 0.000000 -0.000000 0.000000 -10.246418 -1.854498 -33.330661 -6.118624 -0.089598 30.431338 5.469331 -14.087503 -3.646276 0.000000 -0.000000 0.000000 11.755116 1.034835 35.398281 14.422475 -3.692173 -6.800246 12.599340 5.505257 6.507765 6.303527 -5.040849 8.119768 21.285625 -8.730712 -25.191615 49.052585 -18.095391 -36.427776 12.283958 -37.006551 -29.720602 39.530992 -47.019765 -49.703854 25.092214 5.837817 -32.841682 -35.958115 24.109519 -30.867051 2.264056 49.769304 -34.108014 -63.415062 30.407815 -78.911672 -31.099573 -7.989024 -38.252329 
-0.128894 0.272887 0.986247 100.354585 -3.906624 98.686445 -4.635774 -2.651169 -35.049336 -3.097907 -5.367735 25.731936 -3.748443 8.323357 -1.098504 0.000000 -0.000000 0.000000 -10.567161 -1.149711 -32.901794 -6.036430 1.344681 29.361990 5.809350 -13.211703 -3.172326 0.000000 -0.000000 0.000000 11.809145 0.581555 34.922115 14.710085 -4.191012 -6.108480 12.535504 5.333636 6.505792 5.498840 -5.167781 8.430954 20.898934 -9.349760 -25.346125 49.336752 -18.566253 -36.416529 12.171071 -36.983387 -29.914253 39.676127 -46.763774 -50.102257 24.137361 5.345956 -33.194536 -35.664303 24.067223 -30.725051 2.344173 49.748432 -34.137652 -63.550561 30.125090 -78.851836 -29.079545 -8.941232 -37.242886 
-0.124561 0.278204 0.987824 96.910974 -4.212491 98.768410 -4.752696 -1.932512 -34.306094 -2.871100 -3.753871 25.637754 -3.586977 9.186681 -1.924383 0.000000 -0.000000 0.000000 -10.735462 -0.293211 -32.857542 -6.027781 3.029872 28.207378 6.286430 -12.322636 -2.759733 0.000000 -0.000000 0.000000 11.797593 0.299761 34.503543 14.739728 -4.495906 -5.749873 12.357794 4.967729 6.435614 4.804171 -5.744854 9.336956 20.441931 -9.492120 -25.199924 49.088717 -19.057506 -36.068188 12.547643 -37.371745 -30.507055 39.493900 -46.677776 -50.452279 23.796811 4.926430 -32.865096 -35.184796 23.944296 -30.316237 2.980450 49.746083 -33.173245 -64.125961 30.370107 -79.100295 -30.678082 -8.065485 -36.054770 
-0.120382 0.283457 0.989007 93.258359 -4.449110 98.958267 -4.722496 -1.321838 -33.751343 -2.738633 -2.154501 25.651079 -3.454603 10.257688 -2.763459 0.000000 -0.000000 0.000000 -10.857565 0.506500 -33.024042 -5.903442 4.711298 27.062509 6.525939 -11.285970 -2.283363 0.000000 -0.000000 0.000000 11.718652 -0.013215 34.064567 14.558925 -5.010198 -5.057452 12.193819 4.587904 6.413873 3.913410 -6.109361 10.425997 20.266809 -9.490276 -25.374538 49.513474 -19.480708 -35.794198 12.007678 -37.073867 -31.070784 39.396319 -46.390778 -50.529262 22.790151 4.444648 -34.289992 -35.840926 23.696717 -29.791062 3.349449 49.035248 -33.327330 -63.765490 30.816477 -77.692029 -29.529830 -9.352348 -36.895913 
-0.115833 0.287378 0.990666 89.498604 -4.354469 98.725201 -4.433420 -0.171167 -32.787960 -2.682163 -0.661680 25.781318 -3.622002 11.199618 -3.751585 0.000000 -0.000000 0.000000 -10.451051 1.313156 -32.594686 -5.833629 6.496200 25.615844 6.934708 -10.211845 -1.776820 0.000000 -0.000000 0.000000 11.508355 -0.619101 34.621450 14.427405 -5.487955 -4.400396 12.037767 4.251893 6.098590 2.717685 -6.364677 11.730216 19.756367 -9.157285 -25.264331 49.155296 -20.426804 -35.755640 12.093680 -36.577341 -30.795285 39.076566 -46.332421 -50.827705 22.804763 4.261535 -34.906103 -35.959823 23.938065 -29.885742 2.888095 48.285933 -33.165861 -62.347008 31.521909 -76.549926 -27.987896 -10.283049 -36.582185 
